<mxfile host="app.diagrams.net" agent="Mozilla/5.0 (Windows NT 10.0; Win64; x64) AppleWebKit/537.36 (KHTML, like Gecko) Chrome/134.0.0.0 Safari/537.36" version="26.0.16">
  <diagram name="Page-1" id="ttWF55q3ciS-iHvs8cpr">
    <mxGraphModel dx="1730" dy="1516" grid="1" gridSize="10" guides="1" tooltips="1" connect="1" arrows="1" fold="1" page="1" pageScale="1" pageWidth="850" pageHeight="1100" math="0" shadow="0">
      <root>
        <mxCell id="0" />
        <mxCell id="1" parent="0" />
        <mxCell id="T2DOYxdAq8x4y58zUXMO-4" value="&lt;div&gt;&lt;br&gt;&lt;/div&gt;&lt;div&gt;&lt;br&gt;&lt;/div&gt;&lt;div&gt;&lt;br&gt;&lt;/div&gt;&lt;div&gt;&lt;br&gt;&lt;/div&gt;&lt;div&gt;&lt;br&gt;&lt;/div&gt;&lt;div&gt;&lt;br&gt;&lt;/div&gt;&lt;div&gt;&lt;br&gt;&lt;/div&gt;&lt;div&gt;&lt;br&gt;&lt;/div&gt;&lt;div&gt;&lt;br&gt;&lt;/div&gt;&lt;div&gt;&lt;br&gt;&lt;/div&gt;&lt;div&gt;&amp;nbsp; &amp;nbsp; &amp;nbsp; &amp;nbsp; &amp;nbsp; &amp;nbsp; &amp;nbsp; &amp;nbsp; &amp;nbsp; &amp;nbsp; &amp;nbsp; &amp;nbsp; PUBLIC SUBNET&lt;/div&gt;" style="rounded=1;whiteSpace=wrap;html=1;" vertex="1" parent="1">
          <mxGeometry x="155" y="120" width="470" height="160" as="geometry" />
        </mxCell>
        <mxCell id="T2DOYxdAq8x4y58zUXMO-5" value="&lt;div&gt;&lt;br&gt;&lt;/div&gt;&lt;div&gt;&lt;br&gt;&lt;/div&gt;&lt;div&gt;&lt;br&gt;&lt;/div&gt;&lt;div&gt;&lt;br&gt;&lt;/div&gt;&lt;div&gt;&lt;br&gt;&lt;/div&gt;&lt;div&gt;&lt;br&gt;&lt;/div&gt;&lt;div&gt;&lt;br&gt;&lt;/div&gt;&lt;div&gt;&lt;br&gt;&lt;/div&gt;&lt;div&gt;&lt;br&gt;&lt;/div&gt;&lt;div&gt;&lt;br&gt;&lt;/div&gt;&lt;div&gt;&lt;br&gt;&lt;/div&gt;&lt;div&gt;&lt;br&gt;&lt;/div&gt;&lt;div&gt;&lt;br&gt;&lt;/div&gt;&lt;div&gt;&lt;br&gt;&lt;/div&gt;&lt;div&gt;&lt;br&gt;&lt;/div&gt;&lt;div&gt;PRIVATE&amp;nbsp; &amp;nbsp;SUBNET&lt;/div&gt;" style="rounded=1;whiteSpace=wrap;html=1;" vertex="1" parent="1">
          <mxGeometry x="-190" y="400" width="1020" height="230" as="geometry" />
        </mxCell>
        <mxCell id="T2DOYxdAq8x4y58zUXMO-6" value="ROUTE 53" style="shape=parallelogram;perimeter=parallelogramPerimeter;whiteSpace=wrap;html=1;fixedSize=1;" vertex="1" parent="1">
          <mxGeometry x="340" y="30" width="120" height="60" as="geometry" />
        </mxCell>
        <mxCell id="T2DOYxdAq8x4y58zUXMO-7" value="APPLICATION LOAD BALANCER" style="rhombus;whiteSpace=wrap;html=1;" vertex="1" parent="1">
          <mxGeometry x="290" y="170" width="200" height="90" as="geometry" />
        </mxCell>
        <mxCell id="T2DOYxdAq8x4y58zUXMO-10" value="" style="edgeStyle=orthogonalEdgeStyle;rounded=0;orthogonalLoop=1;jettySize=auto;html=1;" edge="1" parent="1" source="T2DOYxdAq8x4y58zUXMO-8" target="T2DOYxdAq8x4y58zUXMO-9">
          <mxGeometry relative="1" as="geometry" />
        </mxCell>
        <mxCell id="T2DOYxdAq8x4y58zUXMO-22" value="" style="edgeStyle=orthogonalEdgeStyle;rounded=0;orthogonalLoop=1;jettySize=auto;html=1;" edge="1" parent="1" source="T2DOYxdAq8x4y58zUXMO-8" target="T2DOYxdAq8x4y58zUXMO-21">
          <mxGeometry relative="1" as="geometry" />
        </mxCell>
        <mxCell id="T2DOYxdAq8x4y58zUXMO-8" value="API 2" style="ellipse;shape=cloud;whiteSpace=wrap;html=1;" vertex="1" parent="1">
          <mxGeometry x="80" y="440" width="120" height="80" as="geometry" />
        </mxCell>
        <mxCell id="T2DOYxdAq8x4y58zUXMO-12" value="" style="edgeStyle=orthogonalEdgeStyle;rounded=0;orthogonalLoop=1;jettySize=auto;html=1;" edge="1" parent="1" source="T2DOYxdAq8x4y58zUXMO-9" target="T2DOYxdAq8x4y58zUXMO-11">
          <mxGeometry relative="1" as="geometry" />
        </mxCell>
        <mxCell id="T2DOYxdAq8x4y58zUXMO-9" value="API 3" style="ellipse;shape=cloud;whiteSpace=wrap;html=1;" vertex="1" parent="1">
          <mxGeometry x="280" y="440" width="120" height="80" as="geometry" />
        </mxCell>
        <mxCell id="T2DOYxdAq8x4y58zUXMO-16" value="" style="edgeStyle=orthogonalEdgeStyle;rounded=0;orthogonalLoop=1;jettySize=auto;html=1;" edge="1" parent="1" source="T2DOYxdAq8x4y58zUXMO-11" target="T2DOYxdAq8x4y58zUXMO-15">
          <mxGeometry relative="1" as="geometry" />
        </mxCell>
        <mxCell id="T2DOYxdAq8x4y58zUXMO-11" value="API 4" style="ellipse;shape=cloud;whiteSpace=wrap;html=1;" vertex="1" parent="1">
          <mxGeometry x="480" y="440" width="120" height="80" as="geometry" />
        </mxCell>
        <mxCell id="T2DOYxdAq8x4y58zUXMO-15" value="API&amp;nbsp; N" style="ellipse;shape=cloud;whiteSpace=wrap;html=1;" vertex="1" parent="1">
          <mxGeometry x="680" y="440" width="120" height="80" as="geometry" />
        </mxCell>
        <mxCell id="T2DOYxdAq8x4y58zUXMO-21" value="API 1" style="ellipse;shape=cloud;whiteSpace=wrap;html=1;" vertex="1" parent="1">
          <mxGeometry x="-120" y="440" width="120" height="80" as="geometry" />
        </mxCell>
        <mxCell id="T2DOYxdAq8x4y58zUXMO-23" value="MongoDB" style="shape=trapezoid;perimeter=trapezoidPerimeter;whiteSpace=wrap;html=1;fixedSize=1;" vertex="1" parent="1">
          <mxGeometry x="270" y="550" width="120" height="60" as="geometry" />
        </mxCell>
        <mxCell id="T2DOYxdAq8x4y58zUXMO-24" value="EC2" style="ellipse;whiteSpace=wrap;html=1;" vertex="1" parent="1">
          <mxGeometry x="270" y="660" width="120" height="80" as="geometry" />
        </mxCell>
        <mxCell id="T2DOYxdAq8x4y58zUXMO-25" value="S3" style="rhombus;whiteSpace=wrap;html=1;" vertex="1" parent="1">
          <mxGeometry x="10" y="660" width="80" height="80" as="geometry" />
        </mxCell>
        <mxCell id="T2DOYxdAq8x4y58zUXMO-39" value="" style="edgeStyle=orthogonalEdgeStyle;rounded=0;orthogonalLoop=1;jettySize=auto;html=1;" edge="1" parent="1" source="T2DOYxdAq8x4y58zUXMO-26" target="T2DOYxdAq8x4y58zUXMO-6">
          <mxGeometry relative="1" as="geometry" />
        </mxCell>
        <mxCell id="T2DOYxdAq8x4y58zUXMO-26" value="Actor" style="shape=umlActor;verticalLabelPosition=bottom;verticalAlign=top;html=1;outlineConnect=0;" vertex="1" parent="1">
          <mxGeometry x="390" y="-70" width="30" height="60" as="geometry" />
        </mxCell>
        <mxCell id="T2DOYxdAq8x4y58zUXMO-30" value="" style="endArrow=none;html=1;rounded=0;exitX=1;exitY=0.5;exitDx=0;exitDy=0;entryX=0;entryY=0.5;entryDx=0;entryDy=0;" edge="1" parent="1" source="T2DOYxdAq8x4y58zUXMO-25" target="T2DOYxdAq8x4y58zUXMO-24">
          <mxGeometry width="50" height="50" relative="1" as="geometry">
            <mxPoint x="190" y="725" as="sourcePoint" />
            <mxPoint x="240" y="675" as="targetPoint" />
          </mxGeometry>
        </mxCell>
        <mxCell id="T2DOYxdAq8x4y58zUXMO-31" value="" style="endArrow=classic;html=1;rounded=0;exitX=0.417;exitY=0;exitDx=0;exitDy=0;exitPerimeter=0;entryX=0.5;entryY=1;entryDx=0;entryDy=0;" edge="1" parent="1" source="T2DOYxdAq8x4y58zUXMO-24" target="T2DOYxdAq8x4y58zUXMO-23">
          <mxGeometry width="50" height="50" relative="1" as="geometry">
            <mxPoint x="295" y="660" as="sourcePoint" />
            <mxPoint x="345" y="610" as="targetPoint" />
            <Array as="points">
              <mxPoint x="325" y="630" />
            </Array>
          </mxGeometry>
        </mxCell>
        <mxCell id="T2DOYxdAq8x4y58zUXMO-32" value="" style="endArrow=none;html=1;rounded=0;exitX=0.783;exitY=0.15;exitDx=0;exitDy=0;exitPerimeter=0;entryX=0.5;entryY=1;entryDx=0;entryDy=0;" edge="1" parent="1" source="T2DOYxdAq8x4y58zUXMO-9" target="T2DOYxdAq8x4y58zUXMO-7">
          <mxGeometry width="50" height="50" relative="1" as="geometry">
            <mxPoint x="365" y="350" as="sourcePoint" />
            <mxPoint x="415" y="300" as="targetPoint" />
          </mxGeometry>
        </mxCell>
        <mxCell id="T2DOYxdAq8x4y58zUXMO-33" value="" style="endArrow=none;html=1;rounded=0;exitX=0.567;exitY=0.088;exitDx=0;exitDy=0;exitPerimeter=0;" edge="1" parent="1" source="T2DOYxdAq8x4y58zUXMO-8">
          <mxGeometry width="50" height="50" relative="1" as="geometry">
            <mxPoint x="270" y="350" as="sourcePoint" />
            <mxPoint x="390" y="280" as="targetPoint" />
          </mxGeometry>
        </mxCell>
        <mxCell id="T2DOYxdAq8x4y58zUXMO-34" value="" style="endArrow=none;html=1;rounded=0;entryX=0.5;entryY=1;entryDx=0;entryDy=0;exitX=0.708;exitY=0.15;exitDx=0;exitDy=0;exitPerimeter=0;" edge="1" parent="1" source="T2DOYxdAq8x4y58zUXMO-21" target="T2DOYxdAq8x4y58zUXMO-4">
          <mxGeometry width="50" height="50" relative="1" as="geometry">
            <mxPoint x="130" y="390" as="sourcePoint" />
            <mxPoint x="180" y="340" as="targetPoint" />
          </mxGeometry>
        </mxCell>
        <mxCell id="T2DOYxdAq8x4y58zUXMO-35" value="" style="endArrow=none;html=1;rounded=0;exitX=0.558;exitY=0.188;exitDx=0;exitDy=0;exitPerimeter=0;" edge="1" parent="1" source="T2DOYxdAq8x4y58zUXMO-11">
          <mxGeometry width="50" height="50" relative="1" as="geometry">
            <mxPoint x="550" y="400" as="sourcePoint" />
            <mxPoint x="390" y="280" as="targetPoint" />
          </mxGeometry>
        </mxCell>
        <mxCell id="T2DOYxdAq8x4y58zUXMO-36" value="" style="endArrow=none;html=1;rounded=0;entryX=0.5;entryY=1;entryDx=0;entryDy=0;exitX=0.25;exitY=0.25;exitDx=0;exitDy=0;exitPerimeter=0;" edge="1" parent="1" source="T2DOYxdAq8x4y58zUXMO-15" target="T2DOYxdAq8x4y58zUXMO-7">
          <mxGeometry width="50" height="50" relative="1" as="geometry">
            <mxPoint x="550" y="400" as="sourcePoint" />
            <mxPoint x="600" y="350" as="targetPoint" />
          </mxGeometry>
        </mxCell>
        <mxCell id="T2DOYxdAq8x4y58zUXMO-38" value="" style="endArrow=none;html=1;rounded=0;exitX=0.5;exitY=0;exitDx=0;exitDy=0;entryX=0.5;entryY=1;entryDx=0;entryDy=0;" edge="1" parent="1" source="T2DOYxdAq8x4y58zUXMO-7" target="T2DOYxdAq8x4y58zUXMO-6">
          <mxGeometry width="50" height="50" relative="1" as="geometry">
            <mxPoint x="360" y="150" as="sourcePoint" />
            <mxPoint x="410" y="100" as="targetPoint" />
          </mxGeometry>
        </mxCell>
        <mxCell id="T2DOYxdAq8x4y58zUXMO-40" value="VPC" style="text;html=1;align=center;verticalAlign=middle;resizable=0;points=[];autosize=1;strokeColor=none;fillColor=none;" vertex="1" parent="1">
          <mxGeometry x="-135" y="238" width="50" height="30" as="geometry" />
        </mxCell>
        <mxCell id="T2DOYxdAq8x4y58zUXMO-41" value="" style="endArrow=none;html=1;rounded=0;" edge="1" parent="1">
          <mxGeometry width="50" height="50" relative="1" as="geometry">
            <mxPoint x="-210" y="650" as="sourcePoint" />
            <mxPoint x="-210" y="90" as="targetPoint" />
          </mxGeometry>
        </mxCell>
        <mxCell id="T2DOYxdAq8x4y58zUXMO-42" value="" style="endArrow=none;html=1;rounded=0;" edge="1" parent="1">
          <mxGeometry width="50" height="50" relative="1" as="geometry">
            <mxPoint x="-210" y="650" as="sourcePoint" />
            <mxPoint x="830" y="660" as="targetPoint" />
          </mxGeometry>
        </mxCell>
        <mxCell id="T2DOYxdAq8x4y58zUXMO-43" value="" style="endArrow=none;html=1;rounded=0;" edge="1" parent="1">
          <mxGeometry width="50" height="50" relative="1" as="geometry">
            <mxPoint x="830" y="660" as="sourcePoint" />
            <mxPoint x="830" y="100" as="targetPoint" />
          </mxGeometry>
        </mxCell>
        <mxCell id="T2DOYxdAq8x4y58zUXMO-44" value="" style="endArrow=none;html=1;rounded=0;" edge="1" parent="1">
          <mxGeometry width="50" height="50" relative="1" as="geometry">
            <mxPoint x="830" y="110" as="sourcePoint" />
            <mxPoint x="-210" y="100" as="targetPoint" />
          </mxGeometry>
        </mxCell>
        <mxCell id="T2DOYxdAq8x4y58zUXMO-45" value="CLOUDWATCH" style="ellipse;whiteSpace=wrap;html=1;aspect=fixed;" vertex="1" parent="1">
          <mxGeometry x="-320" y="140" width="80" height="80" as="geometry" />
        </mxCell>
        <mxCell id="T2DOYxdAq8x4y58zUXMO-48" value="SNS" style="ellipse;whiteSpace=wrap;html=1;aspect=fixed;" vertex="1" parent="1">
          <mxGeometry x="-320" y="260" width="80" height="80" as="geometry" />
        </mxCell>
        <mxCell id="T2DOYxdAq8x4y58zUXMO-49" value="SQS" style="ellipse;whiteSpace=wrap;html=1;aspect=fixed;" vertex="1" parent="1">
          <mxGeometry x="-320" y="400" width="80" height="80" as="geometry" />
        </mxCell>
        <mxCell id="T2DOYxdAq8x4y58zUXMO-50" value="COGNITO" style="triangle;whiteSpace=wrap;html=1;" vertex="1" parent="1">
          <mxGeometry x="200" y="10" width="60" height="80" as="geometry" />
        </mxCell>
        <mxCell id="T2DOYxdAq8x4y58zUXMO-51" value="" style="endArrow=none;html=1;rounded=0;" edge="1" parent="1">
          <mxGeometry width="50" height="50" relative="1" as="geometry">
            <mxPoint x="230" y="30" as="sourcePoint" />
            <mxPoint x="400" y="-10" as="targetPoint" />
          </mxGeometry>
        </mxCell>
        <mxCell id="T2DOYxdAq8x4y58zUXMO-54" value="" style="edgeStyle=orthogonalEdgeStyle;rounded=0;orthogonalLoop=1;jettySize=auto;html=1;" edge="1" parent="1" source="T2DOYxdAq8x4y58zUXMO-52" target="T2DOYxdAq8x4y58zUXMO-53">
          <mxGeometry relative="1" as="geometry" />
        </mxCell>
        <mxCell id="T2DOYxdAq8x4y58zUXMO-52" value="CODE BUILD" style="rounded=1;whiteSpace=wrap;html=1;" vertex="1" parent="1">
          <mxGeometry x="505" y="710" width="120" height="40" as="geometry" />
        </mxCell>
        <mxCell id="T2DOYxdAq8x4y58zUXMO-56" value="" style="edgeStyle=orthogonalEdgeStyle;rounded=0;orthogonalLoop=1;jettySize=auto;html=1;" edge="1" parent="1" source="T2DOYxdAq8x4y58zUXMO-53" target="T2DOYxdAq8x4y58zUXMO-55">
          <mxGeometry relative="1" as="geometry" />
        </mxCell>
        <mxCell id="T2DOYxdAq8x4y58zUXMO-53" value="CODE TEST" style="rounded=1;whiteSpace=wrap;html=1;" vertex="1" parent="1">
          <mxGeometry x="505" y="830" width="120" height="40" as="geometry" />
        </mxCell>
        <mxCell id="T2DOYxdAq8x4y58zUXMO-55" value="CODE DEPLOY" style="rounded=1;whiteSpace=wrap;html=1;" vertex="1" parent="1">
          <mxGeometry x="505" y="950" width="120" height="40" as="geometry" />
        </mxCell>
        <mxCell id="T2DOYxdAq8x4y58zUXMO-57" value="" style="endArrow=none;html=1;rounded=0;exitX=0.5;exitY=0;exitDx=0;exitDy=0;" edge="1" parent="1" source="T2DOYxdAq8x4y58zUXMO-52">
          <mxGeometry width="50" height="50" relative="1" as="geometry">
            <mxPoint x="530" y="680" as="sourcePoint" />
            <mxPoint x="580" y="630" as="targetPoint" />
          </mxGeometry>
        </mxCell>
        <mxCell id="T2DOYxdAq8x4y58zUXMO-58" value="" style="endArrow=none;html=1;rounded=0;exitX=0.988;exitY=0.625;exitDx=0;exitDy=0;exitPerimeter=0;" edge="1" parent="1" source="T2DOYxdAq8x4y58zUXMO-45">
          <mxGeometry width="50" height="50" relative="1" as="geometry">
            <mxPoint x="-260" y="238" as="sourcePoint" />
            <mxPoint x="-210" y="188" as="targetPoint" />
          </mxGeometry>
        </mxCell>
        <mxCell id="T2DOYxdAq8x4y58zUXMO-59" value="" style="endArrow=none;html=1;rounded=0;exitX=1;exitY=0.5;exitDx=0;exitDy=0;" edge="1" parent="1" source="T2DOYxdAq8x4y58zUXMO-48">
          <mxGeometry width="50" height="50" relative="1" as="geometry">
            <mxPoint x="-260" y="340" as="sourcePoint" />
            <mxPoint x="-210" y="300" as="targetPoint" />
          </mxGeometry>
        </mxCell>
        <mxCell id="T2DOYxdAq8x4y58zUXMO-60" value="" style="endArrow=none;html=1;rounded=0;" edge="1" parent="1">
          <mxGeometry width="50" height="50" relative="1" as="geometry">
            <mxPoint x="-240" y="440" as="sourcePoint" />
            <mxPoint x="-210" y="440" as="targetPoint" />
          </mxGeometry>
        </mxCell>
      </root>
    </mxGraphModel>
  </diagram>
</mxfile>
